<?xml version="1.0" encoding="UTF-8"?>
<svg id="Ebene_1" data-name="Ebene 1" xmlns="http://www.w3.org/2000/svg" xmlns:xlink="http://www.w3.org/1999/xlink" viewBox="0 0 1920 1080">
  <defs>
    <style>
      .cls-1 {
        fill: #007588;
      }

      .cls-2 {
        font-size: 48px;
      }

      .cls-2, .cls-3, .cls-4 {
        fill: #27445d;
      }

      .cls-2, .cls-4 {
        font-family: Georgia-Bold, Georgia;
        font-weight: 700;
      }

      .cls-5 {
        fill: #a0c990;
      }

      .cls-6 {
        fill: #71bbb2;
      }

      .cls-7 {
        fill: #373b19;
      }

      .cls-8 {
        fill: #5eab84;
      }

      .cls-9 {
        fill: #edde11;
      }

      .cls-10 {
        fill: #00a4e0;
      }

      .cls-11 {
        fill: #0089c0;
      }

      .cls-12 {
        fill: #4e444b;
      }

      .cls-13 {
        fill: #fdde39;
      }

      .cls-14 {
        fill: #e7ecdc;
      }

      .cls-15 {
        fill: none;
        stroke: #000;
        stroke-miterlimit: 10;
      }

      .cls-3 {
        font-family: Georgia, Georgia;
        font-size: 21px;
      }

      .cls-16 {
        fill: url(#Unbenannter_Verlauf_21-2);
      }

      .cls-17 {
        fill: url(#Unbenannter_Verlauf_21-3);
      }

      .cls-4 {
        font-size: 55px;
      }

      .cls-18 {
        fill: #fdf19a;
      }

      .cls-19 {
        fill: url(#Unbenannter_Verlauf_21);
      }

      .cls-20 {
        fill: #d8d5c1;
      }

      .cls-21 {
        fill: #76c7f1;
      }

      .cls-22 {
        fill: #73b084;
      }
    </style>
    <symbol id="Fisk_2" data-name="Fisk 2" viewBox="0 0 72.52 51.1">
      <g>
        <path class="cls-1" d="M65.04,38.39l-3.86,1.67s-3.33,1-4.5,2.83c-1.33,2.09-4.17,5.17-9.42,5.67-5.25.5-3.25,4.92-15.58.83,4.33-.17,9.58-1.33,10.33-3.08-5.25.75-17.5,4.5-23.75,1.5s-10.79-5.26-13.04-11.01c.33-2.17,3.79-6.91,7.79-7.58-3.83-.17-7.5,1.17-9.83,4C.35,30.55-.98,18.55,6.35,13.05c.5,2.67,2.33,9.67,7.17,10.83-3.74-2.67-3.15-6.73-4.49-12.9C11.53,8.99,15.85-2.28,44.35.72c5.33.67,7.83,5.83,8.83,8.83.33-2.83-2-6.5-3.5-8.17,3.67.83,5.17,5,6.5,8.83.5-1.67,1.5-5.67-1.17-8.33,3.5.83,4.83,5.83,4.83,8.33.67-2.17,1-4.83.33-6.17,1.5,1,2.33,5.17,2.17,7,.83-2.17.83-3.5.83-3.5l1.5,4.5s-.17,3.33,1,5.33c1.17,2,3.33,12.83,6.83,13.5l-.5,3s-5.27.95-6.98,4.5Z"/>
        <path class="cls-14" d="M64.12,38.17l-3.86,1.66s-3.33,1-4.5,2.83c-1.33,2.09-4.16,5.17-9.42,5.67-5.25.5-3.25,4.92-15.58.83,4.33-.16,9.58-1.33,10.33-3.08-5.25.75-17.5,4.5-23.75,1.5-6.25-3-10.79-5.26-13.04-11.01.33-2.17,3.79-6.91,7.79-7.57-3.84-.17-7.5,1.17-9.84,4-2.83-2.67-4.17-14.67,3.17-20.17.5,2.67,2.33,9.67,7.17,10.83-3.74-2.67-3.16-6.73-4.49-12.9C10.61,8.77,14.93-2.5,43.43.5c5.33.66,7.83,5.83,8.83,8.83.34-2.83-2-6.5-3.5-8.17,3.67.84,5.17,5,6.5,8.84.5-1.67,1.5-5.67-1.16-8.34,3.5.84,4.83,5.84,4.83,8.34.67-2.17,1-4.84.33-6.17,1.5,1,2.34,5.17,2.17,7,.83-2.17.83-3.5.83-3.5l1.5,4.5s-.16,3.33,1,5.33c1.17,2,3.34,12.83,6.84,13.5l-.5,3s-5.27.95-6.98,4.5Z"/>
        <path class="cls-18" d="M46.34,45.34c5.25-.5,8.09-3.58,9.42-5.67-3.66-1.71-9.04-3.33-12.42-2.58-3.37.75-3.87,1.5-8.62,2.5-4.75,1-12.38-10.29-26.79-3.75,2.25,5.75,3.17,5.75,9.42,8.75,6.25,3,18.5-.75,23.75-1.5l5.25,2.25Z"/>
        <path class="cls-13" d="M4.31,36.58c2.25,5.75,6.79,8.01,13.04,11.01,6.25,3,18.5-.75,23.75-1.5-.75,1.75-6,2.92-10.33,3.08,12.33,4.08,10.33-.33,15.58-.83,5.25-.5,8.09-3.58,9.42-5.67-3.66-1.71-9.04-3.33-12.42-2.58-3.37.75-3.87,1.5-8.62,2.5-4.75,1-16-12.55-30.41-6.01Z"/>
        <path class="cls-9" d="M64.1,27.21c0,.97.78,1.75,1.75,1.75s1.75-.78,1.75-1.75-.78-1.75-1.75-1.75-1.75.78-1.75,1.75Z"/>
        <path class="cls-8" d="M64.59,27.54c0,.74.63,1.33,1.42,1.33s1.42-.6,1.42-1.33-.64-1.34-1.42-1.34-1.42.6-1.42,1.34Z"/>
        <path class="cls-7" d="M65.21,27.84c0,.58.47,1.05,1.05,1.05s1.05-.47,1.05-1.05-.47-1.05-1.05-1.05-1.05.47-1.05,1.05Z"/>
        <path class="cls-20" d="M56.84,28.17s-9.87,9.25-27.5,4.38c2.38,2.38,19.5,4.62,27.5-4.38Z"/>
        <path class="cls-20" d="M53.47,27.92s-12.88,8.12-28.75.5c2.87,2.75,17.75,8.5,28.75-.5Z"/>
        <path class="cls-20" d="M50.1,26.67s-11.5,4.5-26-1.12c5.38,3.75,17.25,7.12,26,1.12Z"/>
        <path class="cls-20" d="M44.84,24.67s-14.5,2.25-21.75-2.5c2.12,1.88,10.5,6.62,21.75,2.5Z"/>
        <path class="cls-20" d="M41.47,23.04s-10.25,1.75-14.88-2.25c.75,1.75,8.12,4.88,14.88,2.25Z"/>
        <path class="cls-20" d="M42.72,22.04s-5.5-7.75-16.25-7.13c3.5-1.62,13,0,16.25,7.13Z"/>
        <path class="cls-20" d="M48.1,26.04s-5.38-12.88-17.5-14.5c5.12-.62,15.12,4.38,17.5,14.5Z"/>
        <path class="cls-20" d="M51.72,27.42s-5.25-15.63-16.75-17.25c8.62-.75,16.87,10.75,16.75,17.25Z"/>
        <path class="cls-20" d="M54.97,27.54s-2.13-13.75-12.88-17.13c6.75,0,14,10.5,12.88,17.13Z"/>
        <path class="cls-20" d="M39.22,20.92s-6.5-3.62-12.75-3.12c3.37-1.25,11.5.88,12.75,3.12Z"/>
        <path class="cls-20" d="M36.22,21.04c.36-.09-6.62-1.38-8.12-1.38.88.88,7.12,1.62,8.12,1.38Z"/>
        <path class="cls-20" d="M57.18,24s-.21-8.83-8.33-12.33c4.13.75,8.58,5.21,8.33,12.33Z"/>
        <path class="cls-12" d="M56.1,27.34s-9.88,9.25-27.5,4.38c2.38,2.38,19.5,4.62,27.5-4.38Z"/>
        <path class="cls-12" d="M52.72,27.09s-12.88,8.12-28.75.5c2.87,2.75,17.75,8.5,28.75-.5Z"/>
        <path class="cls-12" d="M49.34,25.84s-11.5,4.5-26-1.12c5.38,3.75,17.25,7.12,26,1.12Z"/>
        <path class="cls-12" d="M44.1,23.84s-14.5,2.25-21.75-2.5c2.13,1.88,10.5,6.62,21.75,2.5Z"/>
        <path class="cls-12" d="M40.72,22.21s-10.25,1.75-14.88-2.25c.75,1.75,8.13,4.87,14.88,2.25Z"/>
        <path class="cls-12" d="M41.97,21.21s-5.5-7.75-16.25-7.13c3.5-1.62,13,0,16.25,7.13Z"/>
        <path class="cls-12" d="M47.34,25.21s-5.37-12.88-17.5-14.5c5.13-.62,15.13,4.38,17.5,14.5Z"/>
        <path class="cls-12" d="M50.97,26.59s-5.25-15.63-16.75-17.25c8.62-.75,16.88,10.75,16.75,17.25Z"/>
        <path class="cls-12" d="M54.22,26.71s-2.12-13.75-12.88-17.13c6.75,0,14,10.5,12.88,17.13Z"/>
        <path class="cls-12" d="M38.47,20.09s-6.5-3.62-12.75-3.12c3.37-1.25,11.5.88,12.75,3.12Z"/>
        <path class="cls-12" d="M35.47,20.21c.36-.09-6.63-1.38-8.13-1.38.88.88,7.13,1.62,8.13,1.38Z"/>
        <path class="cls-12" d="M56.43,23.17s-.21-8.83-8.33-12.33c4.12.75,8.58,5.21,8.33,12.33Z"/>
        <path class="cls-5" d="M62.1,21.5s-2,4.83-.5,6.83c1.5,2,5.5,2.67,6.5,3.17s3.33-1,3.33-1l-.17,3s-5.83,1.5-7,4.67c-3.66,1.67-6.66,1.83-8.5,4.5-2.75-1.26-5.47-2.28-7.33-2.33-1.67-.05-3.33-1.17-1.67-2.5,1.67-1.33,12.67,1.67,10.84-6.33-1.84-8,1.66-8.67,2.5-8.83.83-.17,2-1.17,2-1.17Z"/>
        <path class="cls-22" d="M62.23,25.55s-1.87,3.66-.47,5.17c1.41,1.52,5.16,2.02,6.09,2.4.94.38,3.5-.91,3.5-.91l-.25,1.33s-6.28,2.16-6.84,4.63c-3.43,1.26-5.47,2.03-7.7,3.62-2.58-.96-5.4-1.93-7.14-1.98-1.57-.04-3.12-.88-1.56-1.89,1.56-1.01,11.87,1.26,10.15-4.8-1.72-6.06,1.56-6.56,2.34-6.69.78-.13,1.87-.88,1.87-.88Z"/>
        <path class="cls-21" d="M12.43,23.5c-4.27-3.19-3.2-9.62-4.32-12.73C10.61,8.77,14.93-2.5,43.43.5c5.33.66,7.83,5.83,8.83,8.83.34-2.83-2-6.5-3.5-8.17,3.67.84,5.17,5,6.5,8.84.5-1.67,1.5-5.67-1.16-8.34,3.5.84,4.83,5.84,4.83,8.34.67-2.17,1-4.84.33-6.17,1.5,1,2.34,5.17,2.17,7,.83-2.17.83-3.5.83-3.5l1.5,4.5s-.16,3.33,1,5.33C49.07,7.69,29.93,1.34,12.43,23.5Z"/>
        <path class="cls-10" d="M43.43.5C14.93-2.5,10.61,8.77,8.11,10.77c6.03-1.73,27.78-16.1,56.28,6.02-3.63-3.92-19.63-8.63-20.96-16.29Z"/>
        <path class="cls-21" d="M8.11,29.4c-1.15.29-2.23.74-3.22,1.34-.99.6-1.88,1.36-2.63,2.27-2.83-2.67-4.17-14.67,3.17-20.17.36,1.92,1.42,6.11,3.79,8.72-1.96,2.11-2.46,5.28-1.11,7.84Z"/>
        <path class="cls-11" d="M7.67,19.32c-1.49,2.32-2.42,5.75-1.24,10.68l-1.54.73s-2.34-8.32,2.04-12.92c0,0,.59,1.36.75,1.51Z"/>
        <path class="cls-11" d="M9.23,17.75c2-2.38,4.82-3.31,4.82-3.31-2.1.29-3.84,1.03-5.07,1.94.1.3.25,1.37.25,1.37Z"/>
        <path class="cls-11" d="M8.27,11.41c1.46-1.3,1.92-.92,4.16-1.91-1.08,1.62-1.87,1.22-3.82,3.16l-.33-1.25Z"/>
        <path class="cls-11" d="M6.11,15.5c-2.32,2.91-3.97,7.46-2.52,16.17l-1.34,1.33s-3.7-11.03,3.48-18.85l.38,1.35Z"/>
        <path class="cls-5" d="M12.1,29s-.71,0-.84,1.17c-.12,1.17.46,2.33.84,3.71.38,1.38.96,2.21.38,3.25-.58,1.04-.38,1.29.25,3.54.62,2.25.12,3.04-.08,3.71-.21.67.12.88.12.88,0,0-6.33-2.72-8.45-8.68.62-2.16,3.41-6.62,7.79-7.57Z"/>
        <path class="cls-8" d="M8.99,30.33s1.13,1.2,1.03,1.98c-.1.78.38,1.55.69,2.47.31.92.79,1.47.31,2.17-.48.69-.31.86.21,2.36.51,1.5.1,2.03-.07,2.47-.17.44-.8.89-.8.89,0,0-4.29-2.12-6.04-6.09.36-1.3,1.17-3.66,4.69-6.25Z"/>
      </g>
    </symbol>
    <linearGradient id="Unbenannter_Verlauf_21" data-name="Unbenannter Verlauf 21" x1="448.53" y1="829.22" x2="448.53" y2="438.64" gradientUnits="userSpaceOnUse">
      <stop offset=".02" stop-color="#fff"/>
      <stop offset=".65" stop-color="#77bdb5"/>
      <stop offset="1" stop-color="#73bbb3"/>
    </linearGradient>
    <linearGradient id="Unbenannter_Verlauf_21-2" data-name="Unbenannter Verlauf 21" x1="1455.27" y1="830.79" x2="1455.27" y2="532.63" xlink:href="#Unbenannter_Verlauf_21"/>
    <linearGradient id="Unbenannter_Verlauf_21-3" data-name="Unbenannter Verlauf 21" x1="962.3" y1="813.04" x2="962.3" y2="313.24" xlink:href="#Unbenannter_Verlauf_21"/>
  </defs>
  <rect class="cls-6" x="-24.21" y="-32.55" width="2000.7" height="1140.07"/>
  <g>
    <path class="cls-19" d="M436.65,865.66c-2.67,0-10.78,0-10.78,0-16.48,0-31.37-.39-46.82-5.22-20.07-5.73-38.71-19.15-51.15-36.81-13.31-18.9-17.89-40.3-12.9-60.27,15.34-42.19,33.32-84.33,50.7-125.08,11.1-26.01,22.57-52.91,33.25-79.57,2.06-4.96,4.1-10.21,4.41-14.91.75-13.84-12.65-20.1-24.48-25.63-4.18-1.95-8.13-3.8-11.39-5.89-13.07-7.42-26.86-19.76-26.42-32.22.27-7.7,5.96-14.26,16.93-19.5,19.39-9.59,47.94-10.82,70.64-10.82,1.7,0,3.38,0,5.02.02,2.25.02,4.48.03,6.7.03,3.09,0,6.15-.01,9.2-.03,3.01-.01,6.01-.03,9-.03,10.38,0,21.66.16,33.73,1.29l.41.04c16.01,1.92,49.34,5.91,61.43,22.21,1.83,2.51,2.4,5.35,1.71,8.44-2,8.94-13.81,18.19-24.18,23.86-7.77,4.68-16.96,8.47-25.84,12.13-5.36,2.21-10.42,4.3-15.16,6.56-5.48,2.56-8.85,5.75-10.3,9.74-2.56,7.08,1.35,15.38,5.48,24.17,12.23,26.48,25.11,53.23,37.56,79.1,19.32,40.12,39.29,81.61,57.31,123.07,5.65,16.82,4.03,34.9-4.71,52.26-10.82,21.48-31.83,39.45-54.83,46.9-4.11,1.38-8.64,2.59-13.09,3.51-12.62,2.6-24.14,2.62-37.48,2.65h-1.07c-3.01,0-6.17.01-9.41.01-3.89,0-19.71-.01-23.47-.01Z"/>
    <path d="M458.56,450.24c10.37,0,21.63.16,33.68,1.29l.39.04c14.7,1.76,49.14,5.88,61.09,22,1.74,2.39,2.29,5.09,1.63,8.04-1.29,5.75-8.25,14.96-23.97,23.55-7.72,4.65-16.89,8.43-25.75,12.09-5.37,2.21-10.44,4.3-15.18,6.56-5.61,2.62-9.07,5.9-10.56,10.02-2.63,7.27,1.32,15.67,5.5,24.54,12.23,26.49,25.11,53.24,37.57,79.11,19.31,40.11,39.28,81.58,57.29,123.02,5.61,16.72,3.99,34.65-4.68,51.87-10.76,21.36-31.66,39.23-54.55,46.65-4.08,1.37-8.59,2.58-13.03,3.5-12.57,2.59-24.06,2.62-37.38,2.64h-1.08c-2.98,0-6.1.01-9.31.01-3.9,0-7.91,0-11.9,0-3.94,0-7.86,0-11.63,0-2.69,0-5.3,0-7.79,0h-3.02c-16.44,0-31.3-.39-46.7-5.2-19.95-5.7-38.49-19.05-50.86-36.62-13.21-18.76-17.77-40-12.84-59.81,15.35-42.21,33.31-84.32,50.69-125.04,11.1-26.02,22.58-52.92,33.26-79.58,2.08-5.01,4.14-10.3,4.45-15.09.77-14.17-12.8-20.51-24.76-26.1-4.17-1.95-8.1-3.79-11.33-5.86h-.02s-.02-.03-.02-.03c-7.64-4.33-14.12-9.45-18.74-14.8-5.03-5.82-7.59-11.68-7.4-16.95.26-7.5,5.86-13.92,16.65-19.08,19.3-9.54,47.76-10.76,70.41-10.76,1.7,0,3.37,0,5.01.02,2.25.02,4.48.03,6.7.03,3.09,0,6.15-.01,9.2-.03,3.01-.01,6.01-.03,9-.03M458.56,449.24c-6.02,0-12.05.06-18.2.06-2.21,0-4.44,0-6.69-.03-1.64-.01-3.32-.02-5.02-.02-23.29,0-51.7,1.4-70.85,10.86-31.74,15.17-14.24,39.16,9.44,52.59,12.79,8.21,36.63,12.9,35.64,31.07-.31,4.69-2.44,10.1-4.38,14.76-27.41,68.41-58.81,135.49-83.98,204.71-10.77,43.13,23.92,86.12,64.38,97.68,15.77,4.93,30.98,5.24,46.98,5.24,1,0,2.01,0,3.02,0,2.49,0,5.1,0,7.79,0,7.58,0,15.77.01,23.53.01,3.2,0,6.33,0,9.31,0,13.72-.03,25.65.01,38.65-2.67,4.3-.89,8.86-2.09,13.14-3.53,40.11-12.99,74.16-57.28,59.85-99.83-29.65-68.22-63.69-134.63-94.89-202.19-6.21-13.19-11.95-25.52,4.58-33.24,12.74-6.07,28.66-11.25,41.02-18.7,14.75-8.07,30.5-22.25,22.64-33.03-11.7-15.78-43.02-20.16-61.78-22.41l-.41-.04c-11.69-1.1-22.72-1.29-33.78-1.29h0Z"/>
  </g>
  <line class="cls-15" x1="404.35" y1="539.88" x2="479.92" y2="539.88"/>
  <line class="cls-15" x1="402.88" y1="543.77" x2="478.3" y2="542.75"/>
  <line class="cls-15" x1="404.35" y1="536.17" x2="478.3" y2="536.65"/>
  <line class="cls-15" x1="370.1" y1="630.24" x2="518.86" y2="629.53"/>
  <use width="72.52" height="51.1" transform="translate(366.62 784.88)" xlink:href="#Fisk_2"/>
  <use width="72.52" height="51.1" transform="translate(354.33 709.77)" xlink:href="#Fisk_2"/>
  <use width="72.52" height="51.1" transform="translate(451.55 775.43)" xlink:href="#Fisk_2"/>
  <use width="72.52" height="51.1" transform="translate(455.55 712.39)" xlink:href="#Fisk_2"/>
  <use width="72.52" height="51.1" transform="translate(390.72 646.55)" xlink:href="#Fisk_2"/>
  <g>
    <path class="cls-16" d="M1446.18,858.61c-2.04,0-8.22,0-8.22,0-12.58,0-23.95-.3-35.74-3.98-15.31-4.37-29.52-14.61-39.01-28.08-10.15-14.41-13.64-30.73-9.84-45.95,11.72-32.21,25.45-64.4,38.73-95.53,8.48-19.88,17.25-40.43,25.41-60.8,1.58-3.8,3.14-7.82,3.38-11.42.58-10.65-9.7-15.46-18.77-19.7-3.19-1.49-6.2-2.9-8.69-4.5-9.96-5.65-20.46-15.05-20.13-24.51.2-5.84,4.53-10.81,12.86-14.8,14.8-7.31,36.59-8.25,53.92-8.25,1.3,0,2.57,0,3.82.01,1.72.02,3.43.02,5.12.02,2.36,0,4.7-.01,7.02-.02,2.3-.01,4.59-.02,6.88-.02,7.93,0,16.54.12,25.76.99l.31.03c12.21,1.46,37.64,4.51,46.85,16.92,1.37,1.88,1.81,4.02,1.29,6.35-1.52,6.79-10.51,13.83-18.42,18.15-5.93,3.57-12.95,6.47-19.73,9.26-4.1,1.69-7.97,3.29-11.59,5.01-4.22,1.97-6.81,4.42-7.93,7.5-1.97,5.46,1.02,11.82,4.19,18.55,9.34,20.23,19.18,40.67,28.7,60.43,14.76,30.65,30.02,62.35,43.79,94.02,4.31,12.81,3.07,26.59-3.6,39.82-8.25,16.38-24.28,30.08-41.82,35.77-3.14,1.05-6.59,1.98-9.99,2.68-9.62,1.98-18.42,2-28.6,2.03,0,0-5.45,0-7.88,0h-18.08Z"/>
    <path d="M1462.93,541.59c7.92,0,16.51.12,25.71.98l.29.03c11.2,1.34,37.44,4.48,46.51,16.71,1.31,1.79,1.7,3.74,1.2,5.95-1.49,6.63-10.72,13.75-18.21,17.84-5.88,3.54-12.88,6.43-19.64,9.22-4.1,1.69-7.98,3.29-11.61,5.02-4.35,2.03-7.03,4.58-8.19,7.79-2.04,5.65.99,12.1,4.21,18.93,9.35,20.24,19.19,40.67,28.7,60.44,14.75,30.63,30,62.31,43.76,93.97,4.26,12.71,3.03,26.34-3.57,39.44-8.19,16.27-24.11,29.87-41.54,35.52-3.11,1.04-6.55,1.96-9.93,2.66-9.58,1.97-18.35,1.99-28.51,2.02h-.82c-2.28,0-4.66,0-7.11,0-2.98,0-6.04,0-9.09,0-3.01,0-6.01,0-8.89,0-2.05,0-4.05,0-5.95,0h-2.31c-12.54,0-23.87-.3-35.61-3.96-15.19-4.34-29.31-14.5-38.73-27.88-10.05-14.27-13.52-30.42-9.78-45.49,11.72-32.23,25.44-64.4,38.71-95.5,8.48-19.88,17.25-40.43,25.41-60.8,1.6-3.84,3.18-7.91,3.42-11.6.6-10.99-9.84-15.86-19.06-20.17-3.17-1.48-6.17-2.89-8.63-4.46h-.02s-.02-.03-.02-.03c-14.96-8.49-20.07-17.99-19.85-24.04.2-5.63,4.43-10.47,12.59-14.37,14.7-7.26,36.41-8.2,53.69-8.2,1.3,0,2.58,0,3.83.02,1.72.02,3.43.02,5.12.02,2.36,0,4.7-.01,7.03-.02,2.3-.01,4.59-.02,6.87-.02M1462.93,540.59c-4.6,0-9.21.04-13.9.04-1.69,0-3.39,0-5.11-.02-1.25,0-2.53-.02-3.83-.02-17.8,0-39.49,1.07-54.13,8.3-24.25,11.59-10.88,29.92,7.21,40.18,9.77,6.27,27.98,9.86,27.23,23.74-.24,3.58-1.87,7.71-3.35,11.27-20.94,52.27-44.93,103.51-64.16,156.39-8.23,32.95,18.28,65.79,49.19,74.63,12.04,3.76,23.67,4,35.89,4,.77,0,1.54,0,2.31,0,1.9,0,3.89,0,5.95,0,5.79,0,12.06.01,17.98.01,2.45,0,4.83,0,7.11,0,10.48-.02,19.59.01,29.53-2.04,3.28-.68,6.77-1.6,10.04-2.69,30.65-9.93,56.65-43.76,45.72-76.27-22.65-52.12-48.66-102.86-72.49-154.47-4.74-10.08-9.13-19.5,3.5-25.39,9.74-4.64,21.89-8.59,31.34-14.29,11.27-6.16,23.3-17,17.29-25.24-8.94-12.05-32.87-15.4-47.2-17.12l-.31-.03c-8.94-.84-17.36-.99-25.8-.99h0Z"/>
  </g>
  <line class="cls-15" x1="1421.51" y1="609.85" x2="1479.25" y2="609.85"/>
  <line class="cls-15" x1="1420.39" y1="612.82" x2="1478.01" y2="612.04"/>
  <line class="cls-15" x1="1421.51" y1="607.01" x2="1478.01" y2="607.38"/>
  <line class="cls-15" x1="1395.35" y1="678.87" x2="1509" y2="678.33"/>
  <use width="72.52" height="51.1" transform="translate(1392.69 797.02) scale(.76)" xlink:href="#Fisk_2"/>
  <use width="72.52" height="51.1" transform="translate(1390.89 727.06) scale(.76)" xlink:href="#Fisk_2"/>
  <use width="72.52" height="51.1" transform="translate(1459.94 757.28) scale(.76)" xlink:href="#Fisk_2"/>
  <g>
    <path class="cls-17" d="M962.02,859.67c-5.06,0-10.08,0-14.92,0-3.42,0-13.79.01-13.79.01-21.08,0-40.14-.5-59.92-6.68-25.69-7.34-49.56-24.52-65.49-47.14-17.05-24.2-22.91-51.62-16.52-77.2,19.63-53.97,42.62-107.86,64.85-159.98,14.19-33.27,28.87-67.68,42.53-101.78,2.63-6.34,5.24-13.04,5.64-19.03.96-17.6-16.14-25.6-31.22-32.65-5.35-2.5-10.41-4.86-14.58-7.55-16.75-9.5-34.42-25.34-33.85-41.33.35-9.9,7.66-18.34,21.73-25.06,24.83-12.27,61.36-13.85,90.4-13.85,2.17,0,4.32,0,6.41.03,2.88.03,5.73.04,8.56.04,3.95,0,7.87-.02,11.76-.04,3.85-.02,7.68-.04,11.51-.04,13.29,0,27.71.2,43.15,1.65l.52.05c20.5,2.45,63.17,7.56,78.67,28.46,2.36,3.24,3.1,6.91,2.21,10.91-2.57,11.48-17.7,23.34-31,30.61-9.94,5.99-21.69,10.84-33.06,15.53-6.86,2.83-13.33,5.5-19.38,8.38-6.98,3.26-11.26,7.31-13.1,12.38-3.25,9,1.73,19.59,7.01,30.8,15.64,33.87,32.12,68.09,48.05,101.18,24.71,51.31,50.25,104.37,73.3,157.41,7.25,21.55,5.17,44.72-6.03,66.95-13.85,27.5-40.75,50.51-70.21,60.05-5.26,1.76-11.05,3.31-16.76,4.5-16.15,3.33-30.89,3.36-47.96,3.4h-1.37c-3.8.01-7.79.01-11.88.01-5,0-10.14,0-15.26,0Z"/>
    <path d="M975.13,327.93c13.27,0,27.68.2,43.1,1.65l.5.05c13.88,1.66,28.67,3.76,42.74,7.81,17.23,4.96,29.21,11.84,35.59,20.44,2.27,3.12,2.99,6.66,2.13,10.5-1.12,4.99-4.93,10.63-11.03,16.32-5.28,4.93-12.29,9.89-19.76,13.98-9.89,5.96-21.63,10.8-32.97,15.48-6.86,2.83-13.34,5.5-19.4,8.39-7.11,3.32-11.48,7.46-13.36,12.66-3.33,9.19,1.7,19.88,7.02,31.18,15.64,33.87,32.12,68.09,48.05,101.17,24.7,51.3,50.24,104.35,73.28,157.36,7.2,21.45,5.13,44.47-6,66.57-13.79,27.38-40.58,50.3-69.93,59.8-5.24,1.75-11.01,3.3-16.69,4.48-16.1,3.32-30.82,3.35-47.86,3.39h-1.38c-3.81.01-7.8.02-11.9.02-4.99,0-10.12,0-15.22,0-5.05,0-10.06,0-14.89,0-3.43,0-6.77,0-9.95,0-1.29,0-2.58,0-3.86,0-21.05,0-40.08-.5-59.81-6.67-25.57-7.31-49.34-24.42-65.2-46.94-16.95-24.06-22.79-51.32-16.46-76.74,19.64-53.99,42.62-107.86,64.84-159.95,14.2-33.28,28.87-67.68,42.53-101.78,2.65-6.38,5.28-13.12,5.68-19.2.98-17.94-16.28-26-31.51-33.12-5.34-2.49-10.38-4.85-14.53-7.51h-.02s-.02-.03-.02-.03c-9.79-5.56-18.11-12.12-24.04-18.99-6.48-7.49-9.78-15.06-9.54-21.88.34-9.7,7.55-17.99,21.45-24.64,24.73-12.22,61.18-13.79,90.18-13.79,2.17,0,4.31,0,6.41.03,2.65.02,5.46.04,8.57.04,3.95,0,7.87-.02,11.76-.04,3.85-.02,7.68-.04,11.51-.04M975.13,326.93c-7.7,0-15.41.07-23.28.07-2.83,0-5.68,0-8.56-.04-2.1-.02-4.24-.03-6.42-.03-29.79,0-66.12,1.78-90.62,13.89-40.59,19.41-18.21,50.09,12.07,67.27,16.36,10.5,46.84,16.5,45.58,39.74-.39,5.99-3.12,12.91-5.6,18.87-35.06,87.5-75.21,173.29-107.41,261.82-13.78,55.16,30.6,110.15,82.35,124.93,20.16,6.3,39.62,6.7,60.08,6.7,1.28,0,2.57,0,3.86,0,3.18,0,6.52,0,9.95,0,9.7,0,20.19.02,30.11.02,4.09,0,8.09,0,11.9-.01,17.54-.04,32.8.02,49.44-3.41,5.5-1.14,11.33-2.68,16.81-4.51,51.3-16.62,94.85-73.26,76.55-127.68-37.92-87.25-81.45-172.19-121.36-258.6-7.94-16.87-15.29-32.64,5.85-42.51,16.3-7.77,36.65-14.39,52.47-23.92,18.87-10.32,39-28.46,28.95-42.25-14.97-20.18-55.02-25.78-79.02-28.66l-.52-.05c-14.96-1.41-29.06-1.66-43.2-1.66h0Z"/>
  </g>
  <line class="cls-15" x1="905.8" y1="442.87" x2="1002.45" y2="442.87"/>
  <line class="cls-15" x1="903.91" y1="447.84" x2="1000.38" y2="446.54"/>
  <line class="cls-15" x1="905.8" y1="438.11" x2="1000.38" y2="438.74"/>
  <line class="cls-15" x1="861.99" y1="558.43" x2="1052.25" y2="557.52"/>
  <use width="72.52" height="51.1" transform="translate(857.54 756.22) scale(1.28)" xlink:href="#Fisk_2"/>
  <use width="72.52" height="51.1" transform="translate(841.83 660.16) scale(1.28)" xlink:href="#Fisk_2"/>
  <use width="72.52" height="51.1" transform="translate(966.17 744.13) scale(1.28)" xlink:href="#Fisk_2"/>
  <use width="72.52" height="51.1" transform="translate(971.28 663.51) scale(1.28)" xlink:href="#Fisk_2"/>
  <use width="72.52" height="51.1" transform="translate(851.93 585.45) scale(1.28)" xlink:href="#Fisk_2"/>
  <text class="cls-2" transform="translate(297.49 943)"><tspan x="0" y="0" xml:space="preserve">2013:  33.4 t</tspan></text>
  <text class="cls-2" transform="translate(831.51 946.69)"><tspan x="0" y="0">2016: 51.3 t</tspan></text>
  <text class="cls-2" transform="translate(1345.14 946.69)"><tspan x="0" y="0">2023: 19.8 t</tspan></text>
  <text class="cls-4" transform="translate(122.91 123.71)"><tspan x="0" y="0">Development of Imported Marine Aquarium Fishes‘ Weight </tspan><tspan x="685.74" y="60">(Germany)</tspan></text>
  <text class="cls-3" transform="translate(6.71 1064)"><tspan x="0" y="0">Source: Statistisches Bundesamt, Germany. Illustration by Sophia Baumann</tspan></text>
  <use width="72.52" height="51.1" transform="translate(958.99 576.38) scale(1.28)" xlink:href="#Fisk_2"/>
</svg>