<?xml version="1.0" encoding="UTF-8"?>
<svg id="Ebene_1" xmlns="http://www.w3.org/2000/svg" xmlns:xlink="http://www.w3.org/1999/xlink" version="1.1" viewBox="0 0 1920 1080">
  <!-- Generator: Adobe Illustrator 29.6.0, SVG Export Plug-In . SVG Version: 2.1.1 Build 207)  -->
  <defs>
    <style>
      .st0 {
        fill: #007588;
      }

      .st1 {
        fill: #27445d;
        font-family: Georgia-Bold, Georgia;
        font-size: 48px;
        font-weight: 700;
      }

      .st2 {
        fill: #a0c990;
      }

      .st3 {
        fill: #71bbb2;
      }

      .st4 {
        fill: #373b19;
      }

      .st5 {
        fill: #5eab84;
      }

      .st6 {
        fill: #edde11;
      }

      .st7 {
        fill: #fff;
      }

      .st7, .st8, .st9 {
        stroke: #000;
        stroke-miterlimit: 10;
      }

      .st10 {
        fill: #00a4e0;
      }

      .st11 {
        fill: #0089c0;
      }

      .st12 {
        fill: #4e444b;
      }

      .st13 {
        fill: #fdde39;
      }

      .st14 {
        fill: #e7ecdc;
      }

      .st8, .st9 {
        fill: none;
      }

      .st15 {
        fill: url(#Unbenannter_Verlauf_212);
      }

      .st16 {
        fill: url(#Unbenannter_Verlauf_211);
      }

      .st9 {
        stroke-width: 5px;
      }

      .st17 {
        fill: #fdf19a;
      }

      .st18 {
        fill: url(#Unbenannter_Verlauf_21);
      }

      .st19 {
        fill: #d8d5c1;
      }

      .st20 {
        fill: #76c7f1;
      }

      .st21 {
        fill: #73b084;
      }
    </style>
    <symbol id="Fisk_2" viewBox="0 0 72.5 51.1">
      <g>
        <path class="st0" d="M65,38.4l-3.9,1.7s-3.3,1-4.5,2.8c-1.3,2.1-4.2,5.2-9.4,5.7-5.3.5-3.3,4.9-15.6.8,4.3-.2,9.6-1.3,10.3-3.1-5.3.8-17.5,4.5-23.7,1.5s-10.8-5.3-13-11c.3-2.2,3.8-6.9,7.8-7.6-3.8-.2-7.5,1.2-9.8,4C.3,30.6-1,18.6,6.3,13.1c.5,2.7,2.3,9.7,7.2,10.8-3.7-2.7-3.2-6.7-4.5-12.9C11.5,9,15.8-2.3,44.3.7c5.3.7,7.8,5.8,8.8,8.8.3-2.8-2-6.5-3.5-8.2,3.7.8,5.2,5,6.5,8.8.5-1.7,1.5-5.7-1.2-8.3,3.5.8,4.8,5.8,4.8,8.3.7-2.2,1-4.8.3-6.2,1.5,1,2.3,5.2,2.2,7,.8-2.2.8-3.5.8-3.5l1.5,4.5s-.2,3.3,1,5.3c1.2,2,3.3,12.8,6.8,13.5l-.5,3s-5.3.9-7,4.5Z"/>
        <path class="st14" d="M64.1,38.2l-3.9,1.7s-3.3,1-4.5,2.8c-1.3,2.1-4.2,5.2-9.4,5.7-5.2.5-3.2,4.9-15.6.8,4.3-.2,9.6-1.3,10.3-3.1-5.3.8-17.5,4.5-23.8,1.5-6.2-3-10.8-5.3-13-11,.3-2.2,3.8-6.9,7.8-7.6-3.8-.2-7.5,1.2-9.8,4-2.8-2.7-4.2-14.7,3.2-20.2.5,2.7,2.3,9.7,7.2,10.8-3.7-2.7-3.2-6.7-4.5-12.9C10.6,8.8,14.9-2.5,43.4.5c5.3.7,7.8,5.8,8.8,8.8.3-2.8-2-6.5-3.5-8.2,3.7.8,5.2,5,6.5,8.8.5-1.7,1.5-5.7-1.2-8.3,3.5.8,4.8,5.8,4.8,8.3.7-2.2,1-4.8.3-6.2,1.5,1,2.3,5.2,2.2,7,.8-2.2.8-3.5.8-3.5l1.5,4.5s-.2,3.3,1,5.3c1.2,2,3.3,12.8,6.8,13.5l-.5,3s-5.3.9-7,4.5Z"/>
        <path class="st17" d="M46.3,45.3c5.3-.5,8.1-3.6,9.4-5.7-3.7-1.7-9-3.3-12.4-2.6-3.4.8-3.9,1.5-8.6,2.5-4.7,1-12.4-10.3-26.8-3.8,2.2,5.8,3.2,5.8,9.4,8.8,6.3,3,18.5-.8,23.8-1.5l5.2,2.2Z"/>
        <path class="st13" d="M4.3,36.6c2.2,5.8,6.8,8,13,11,6.3,3,18.5-.8,23.8-1.5-.8,1.8-6,2.9-10.3,3.1,12.3,4.1,10.3-.3,15.6-.8,5.3-.5,8.1-3.6,9.4-5.7-3.7-1.7-9-3.3-12.4-2.6-3.4.8-3.9,1.5-8.6,2.5-4.7,1-16-12.5-30.4-6Z"/>
        <path class="st6" d="M64.1,27.2c0,1,.8,1.8,1.7,1.8s1.8-.8,1.8-1.8-.8-1.8-1.8-1.8-1.7.8-1.7,1.8Z"/>
        <path class="st5" d="M64.6,27.5c0,.7.6,1.3,1.4,1.3s1.4-.6,1.4-1.3-.6-1.3-1.4-1.3-1.4.6-1.4,1.3Z"/>
        <path class="st4" d="M65.2,27.8c0,.6.5,1,1,1s1-.5,1-1-.5-1-1-1-1,.5-1,1Z"/>
        <path class="st19" d="M56.8,28.2s-9.9,9.2-27.5,4.4c2.4,2.4,19.5,4.6,27.5-4.4Z"/>
        <path class="st19" d="M53.5,27.9s-12.9,8.1-28.8.5c2.9,2.8,17.8,8.5,28.8-.5Z"/>
        <path class="st19" d="M50.1,26.7s-11.5,4.5-26-1.1c5.4,3.7,17.2,7.1,26,1.1Z"/>
        <path class="st19" d="M44.8,24.7s-14.5,2.2-21.7-2.5c2.1,1.9,10.5,6.6,21.7,2.5Z"/>
        <path class="st19" d="M41.5,23s-10.3,1.8-14.9-2.2c.7,1.8,8.1,4.9,14.9,2.2Z"/>
        <path class="st19" d="M42.7,22s-5.5-7.8-16.2-7.1c3.5-1.6,13,0,16.2,7.1Z"/>
        <path class="st19" d="M48.1,26s-5.4-12.9-17.5-14.5c5.1-.6,15.1,4.4,17.5,14.5Z"/>
        <path class="st19" d="M51.7,27.4s-5.2-15.6-16.7-17.3c8.6-.8,16.9,10.8,16.7,17.3Z"/>
        <path class="st19" d="M55,27.5s-2.1-13.8-12.9-17.1c6.7,0,14,10.5,12.9,17.1Z"/>
        <path class="st19" d="M39.2,20.9s-6.5-3.6-12.7-3.1c3.4-1.2,11.5.9,12.7,3.1Z"/>
        <path class="st19" d="M36.2,21c.4,0-6.6-1.4-8.1-1.4.9.9,7.1,1.6,8.1,1.4Z"/>
        <path class="st19" d="M57.2,24s-.2-8.8-8.3-12.3c4.1.8,8.6,5.2,8.3,12.3Z"/>
        <path class="st12" d="M56.1,27.3s-9.9,9.2-27.5,4.4c2.4,2.4,19.5,4.6,27.5-4.4Z"/>
        <path class="st12" d="M52.7,27.1s-12.9,8.1-28.7.5c2.9,2.8,17.7,8.5,28.7-.5Z"/>
        <path class="st12" d="M49.3,25.8s-11.5,4.5-26-1.1c5.4,3.8,17.3,7.1,26,1.1Z"/>
        <path class="st12" d="M44.1,23.8s-14.5,2.2-21.8-2.5c2.1,1.9,10.5,6.6,21.8,2.5Z"/>
        <path class="st12" d="M40.7,22.2s-10.2,1.8-14.9-2.2c.8,1.8,8.1,4.9,14.9,2.2Z"/>
        <path class="st12" d="M42,21.2s-5.5-7.8-16.3-7.1c3.5-1.6,13,0,16.3,7.1Z"/>
        <path class="st12" d="M47.3,25.2s-5.4-12.9-17.5-14.5c5.1-.6,15.1,4.4,17.5,14.5Z"/>
        <path class="st12" d="M51,26.6s-5.3-15.6-16.8-17.3c8.6-.8,16.9,10.8,16.8,17.3Z"/>
        <path class="st12" d="M54.2,26.7s-2.1-13.8-12.9-17.1c6.8,0,14,10.5,12.9,17.1Z"/>
        <path class="st12" d="M38.5,20.1s-6.5-3.6-12.8-3.1c3.4-1.3,11.5.9,12.8,3.1Z"/>
        <path class="st12" d="M35.5,20.2c.4,0-6.6-1.4-8.1-1.4.9.9,7.1,1.6,8.1,1.4Z"/>
        <path class="st12" d="M56.4,23.2s-.2-8.8-8.3-12.3c4.1.8,8.6,5.2,8.3,12.3Z"/>
        <path class="st2" d="M62.1,21.5s-2,4.8-.5,6.8c1.5,2,5.5,2.7,6.5,3.2s3.3-1,3.3-1l-.2,3s-5.8,1.5-7,4.7c-3.7,1.7-6.7,1.8-8.5,4.5-2.7-1.3-5.5-2.3-7.3-2.3-1.7,0-3.3-1.2-1.7-2.5,1.7-1.3,12.7,1.7,10.8-6.3-1.8-8,1.7-8.7,2.5-8.8.8-.2,2-1.2,2-1.2Z"/>
        <path class="st21" d="M62.2,25.5s-1.9,3.7-.5,5.2c1.4,1.5,5.2,2,6.1,2.4.9.4,3.5-.9,3.5-.9l-.3,1.3s-6.3,2.2-6.8,4.6c-3.4,1.3-5.5,2-7.7,3.6-2.6-1-5.4-1.9-7.1-2-1.6,0-3.1-.9-1.6-1.9,1.6-1,11.9,1.3,10.2-4.8-1.7-6.1,1.6-6.6,2.3-6.7.8-.1,1.9-.9,1.9-.9Z"/>
        <path class="st20" d="M12.4,23.5c-4.3-3.2-3.2-9.6-4.3-12.7C10.6,8.8,14.9-2.5,43.4.5c5.3.7,7.8,5.8,8.8,8.8.3-2.8-2-6.5-3.5-8.2,3.7.8,5.2,5,6.5,8.8.5-1.7,1.5-5.7-1.2-8.3,3.5.8,4.8,5.8,4.8,8.3.7-2.2,1-4.8.3-6.2,1.5,1,2.3,5.2,2.2,7,.8-2.2.8-3.5.8-3.5l1.5,4.5s-.2,3.3,1,5.3C49.1,7.7,29.9,1.3,12.4,23.5Z"/>
        <path class="st10" d="M43.4.5C14.9-2.5,10.6,8.8,8.1,10.8c6-1.7,27.8-16.1,56.3,6-3.6-3.9-19.6-8.6-21-16.3Z"/>
        <path class="st20" d="M8.1,29.4c-1.1.3-2.2.7-3.2,1.3-1,.6-1.9,1.4-2.6,2.3-2.8-2.7-4.2-14.7,3.2-20.2.4,1.9,1.4,6.1,3.8,8.7-2,2.1-2.5,5.3-1.1,7.8Z"/>
        <path class="st11" d="M7.7,19.3c-1.5,2.3-2.4,5.7-1.2,10.7l-1.5.7s-2.3-8.3,2-12.9c0,0,.6,1.4.7,1.5Z"/>
        <path class="st11" d="M9.2,17.8c2-2.4,4.8-3.3,4.8-3.3-2.1.3-3.8,1-5.1,1.9.1.3.2,1.4.2,1.4Z"/>
        <path class="st11" d="M8.3,11.4c1.5-1.3,1.9-.9,4.2-1.9-1.1,1.6-1.9,1.2-3.8,3.2l-.3-1.3Z"/>
        <path class="st11" d="M6.1,15.5c-2.3,2.9-4,7.5-2.5,16.2l-1.3,1.3s-3.7-11,3.5-18.9l.4,1.3Z"/>
        <path class="st2" d="M12.1,29s-.7,0-.8,1.2c-.1,1.2.5,2.3.8,3.7.4,1.4,1,2.2.4,3.2-.6,1-.4,1.3.2,3.5.6,2.2.1,3,0,3.7-.2.7.1.9.1.9,0,0-6.3-2.7-8.5-8.7.6-2.2,3.4-6.6,7.8-7.6Z"/>
        <path class="st5" d="M9,30.3s1.1,1.2,1,2c-.1.8.4,1.6.7,2.5.3.9.8,1.5.3,2.2-.5.7-.3.9.2,2.4.5,1.5.1,2,0,2.5-.2.4-.8.9-.8.9,0,0-4.3-2.1-6-6.1.4-1.3,1.2-3.7,4.7-6.3Z"/>
      </g>
    </symbol>
    <linearGradient id="Unbenannter_Verlauf_21" data-name="Unbenannter Verlauf 21" x1="455.9" y1="755.4" x2="455.9" y2="364.8" gradientUnits="userSpaceOnUse">
      <stop offset="0" stop-color="#fff"/>
      <stop offset=".6" stop-color="#77bdb5"/>
      <stop offset="1" stop-color="#73bbb3"/>
    </linearGradient>
    <linearGradient id="Unbenannter_Verlauf_211" data-name="Unbenannter Verlauf 21" x1="1462.7" y1="756.9" x2="1462.7" y2="458.8" xlink:href="#Unbenannter_Verlauf_21"/>
    <linearGradient id="Unbenannter_Verlauf_212" data-name="Unbenannter Verlauf 21" x1="969.7" y1="739.2" x2="969.7" y2="239.4" xlink:href="#Unbenannter_Verlauf_21"/>
  </defs>
  <rect class="st3" x="-24.2" y="-32.6" width="2000.7" height="1140.1"/>
  <g>
    <path class="st18" d="M444.3,791.8c-2.8,0-11,0-11,0-16.5,0-31.4-.4-46.9-5.2-20.1-5.7-38.7-19.2-51.1-36.8-13.3-18.9-17.9-40.3-12.9-60.3,15.3-42.2,33.3-84.3,50.7-125.1,11.1-26,22.6-52.9,33.3-79.6,2.1-5,4.1-10.2,4.4-14.9.8-13.8-12.7-20.1-24.5-25.6-4.2-2-8.1-3.8-11.4-5.9-13.1-7.4-26.9-19.8-26.4-32.2.3-7.7,6-14.3,16.9-19.5,19.4-9.6,47.9-10.8,70.6-10.8s3.4,0,5,0c2.3,0,4.5,0,6.7,0s6.2,0,9.2,0c3,0,6,0,9,0,10.4,0,21.7.2,33.7,1.3h.4c16,2,49.3,5.9,61.4,22.2,1.8,2.5,2.4,5.3,1.7,8.4-2,8.9-13.8,18.2-24.2,23.9-7.8,4.7-17,8.5-25.8,12.1-5.4,2.2-10.4,4.3-15.2,6.6-5.5,2.6-8.9,5.7-10.3,9.7-2.6,7.1,1.3,15.4,5.5,24.2,12.2,26.5,25.1,53.2,37.6,79.1,19.3,40.1,39.3,81.6,57.3,123.1,5.7,16.8,4,34.9-4.7,52.3-10.8,21.5-31.8,39.4-54.8,46.9-4.1,1.4-8.6,2.6-13.1,3.5-12.6,2.6-24.1,2.6-37.5,2.7h-1.1c-2.9,0-6,0-9.2,0s-19.7,0-23.4,0Z"/>
    <path d="M465.9,376.4c10.4,0,21.6.2,33.7,1.3h.4c14.7,1.8,49.1,5.9,61.1,22,1.7,2.4,2.3,5.1,1.6,8-1.3,5.8-8.3,15-24,23.6-7.7,4.7-16.9,8.4-25.8,12.1-5.4,2.2-10.4,4.3-15.2,6.6-5.6,2.6-9.1,5.9-10.6,10-2.6,7.3,1.3,15.7,5.5,24.5,12.2,26.5,25.1,53.2,37.6,79.1,19.3,40.1,39.3,81.6,57.3,123,5.6,16.7,4,34.7-4.7,51.9-10.8,21.4-31.7,39.2-54.5,46.6-4.1,1.4-8.6,2.6-13,3.5-12.6,2.6-24.1,2.6-37.4,2.6h-1.1c-3,0-6.1,0-9.3,0s-7.9,0-11.9,0c-3.9,0-7.9,0-11.6,0s-5.3,0-7.8,0h-3c-16.4,0-31.3-.4-46.7-5.2-19.9-5.7-38.5-19-50.9-36.6-13.2-18.8-17.8-40-12.8-59.8,15.4-42.2,33.3-84.3,50.7-125,11.1-26,22.6-52.9,33.3-79.6,2.1-5,4.1-10.3,4.5-15.1.8-14.2-12.8-20.5-24.8-26.1-4.2-1.9-8.1-3.8-11.3-5.9h0s0,0,0,0c-7.6-4.3-14.1-9.4-18.7-14.8-5-5.8-7.6-11.7-7.4-17,.3-7.5,5.9-13.9,16.7-19.1,19.3-9.5,47.8-10.8,70.4-10.8,1.7,0,3.4,0,5,0,2.3,0,4.5,0,6.7,0s6.2,0,9.2,0c3,0,6,0,9,0M465.9,375.4c-6,0-12,0-18.2,0s-4.4,0-6.7,0c-1.6,0-3.3,0-5,0-23.3,0-51.7,1.4-70.9,10.9-31.7,15.2-14.2,39.2,9.4,52.6,12.8,8.2,36.6,12.9,35.6,31.1-.3,4.7-2.4,10.1-4.4,14.8-27.4,68.4-58.8,135.5-84,204.7-10.8,43.1,23.9,86.1,64.4,97.7,15.8,4.9,31,5.2,47,5.2s2,0,3,0c2.5,0,5.1,0,7.8,0,7.6,0,15.8,0,23.5,0s6.3,0,9.3,0c13.7,0,25.6,0,38.7-2.7,4.3-.9,8.9-2.1,13.1-3.5,40.1-13,74.2-57.3,59.8-99.8-29.6-68.2-63.7-134.6-94.9-202.2-6.2-13.2-12-25.5,4.6-33.2,12.7-6.1,28.7-11.2,41-18.7,14.8-8.1,30.5-22.3,22.6-33-11.7-15.8-43-20.2-61.8-22.4h-.4c-11.7-1.1-22.7-1.3-33.8-1.3h0Z"/>
  </g>
  <path class="st7" d="M495.2,635.9"/>
  <line class="st8" x1="411.7" y1="466" x2="487.3" y2="466"/>
  <line class="st8" x1="410.3" y1="469.9" x2="485.7" y2="468.9"/>
  <path class="st8" d="M546.6,495.1"/>
  <path class="st9" d="M485.6,495.1"/>
  <line class="st8" x1="411.7" y1="462.3" x2="485.7" y2="462.8"/>
  <line class="st8" x1="377.5" y1="556.4" x2="526.2" y2="555.7"/>
  <use width="72.5" height="51.1" transform="translate(374 711)" xlink:href="#Fisk_2"/>
  <use width="72.5" height="51.1" transform="translate(361.7 635.9)" xlink:href="#Fisk_2"/>
  <use width="72.5" height="51.1" transform="translate(458.9 701.6)" xlink:href="#Fisk_2"/>
  <use width="72.5" height="51.1" transform="translate(462.9 638.5)" xlink:href="#Fisk_2"/>
  <use width="72.5" height="51.1" transform="translate(398.1 572.7)" xlink:href="#Fisk_2"/>
  <path class="st7" d="M783.6,635.6"/>
  <g>
    <path class="st16" d="M1453.6,784.7c-2,0-8.2,0-8.2,0-12.6,0-23.9-.3-35.7-4-15.3-4.4-29.5-14.6-39-28.1-10.1-14.4-13.6-30.7-9.8-45.9,11.7-32.2,25.4-64.4,38.7-95.5,8.5-19.9,17.2-40.4,25.4-60.8,1.6-3.8,3.1-7.8,3.4-11.4.6-10.7-9.7-15.5-18.8-19.7-3.2-1.5-6.2-2.9-8.7-4.5-10-5.7-20.5-15-20.1-24.5.2-5.8,4.5-10.8,12.9-14.8,14.8-7.3,36.6-8.3,53.9-8.3s2.6,0,3.8,0c1.7,0,3.4,0,5.1,0s4.7,0,7,0c2.3,0,4.6,0,6.9,0,7.9,0,16.5.1,25.8,1h.3c12.2,1.5,37.6,4.5,46.8,16.9,1.4,1.9,1.8,4,1.3,6.4-1.5,6.8-10.5,13.8-18.4,18.2-5.9,3.6-12.9,6.5-19.7,9.3-4.1,1.7-8,3.3-11.6,5-4.2,2-6.8,4.4-7.9,7.5-2,5.5,1,11.8,4.2,18.6,9.3,20.2,19.2,40.7,28.7,60.4,14.8,30.7,30,62.3,43.8,94,4.3,12.8,3.1,26.6-3.6,39.8-8.2,16.4-24.3,30.1-41.8,35.8-3.1,1-6.6,2-10,2.7-9.6,2-18.4,2-28.6,2,0,0-5.5,0-7.9,0h-18.1Z"/>
    <path d="M1470.3,467.7c7.9,0,16.5.1,25.7,1h.3c11.2,1.4,37.4,4.5,46.5,16.7,1.3,1.8,1.7,3.7,1.2,5.9-1.5,6.6-10.7,13.7-18.2,17.8-5.9,3.5-12.9,6.4-19.6,9.2-4.1,1.7-8,3.3-11.6,5-4.3,2-7,4.6-8.2,7.8-2,5.6,1,12.1,4.2,18.9,9.3,20.2,19.2,40.7,28.7,60.4,14.7,30.6,30,62.3,43.8,94,4.3,12.7,3,26.3-3.6,39.4-8.2,16.3-24.1,29.9-41.5,35.5-3.1,1-6.5,2-9.9,2.7-9.6,2-18.3,2-28.5,2h-.8c-2.3,0-4.7,0-7.1,0s-6,0-9.1,0c-3,0-6,0-8.9,0s-4,0-5.9,0h-2.3c-12.5,0-23.9-.3-35.6-4-15.2-4.3-29.3-14.5-38.7-27.9-10.1-14.3-13.5-30.4-9.8-45.5,11.7-32.2,25.4-64.4,38.7-95.5,8.5-19.9,17.2-40.4,25.4-60.8,1.6-3.8,3.2-7.9,3.4-11.6.6-11-9.8-15.9-19.1-20.2-3.2-1.5-6.2-2.9-8.6-4.5h0s0,0,0,0c-15-8.5-20.1-18-19.9-24,.2-5.6,4.4-10.5,12.6-14.4,14.7-7.3,36.4-8.2,53.7-8.2,1.3,0,2.6,0,3.8,0,1.7,0,3.4,0,5.1,0s4.7,0,7,0c2.3,0,4.6,0,6.9,0M1470.3,466.7c-4.6,0-9.2,0-13.9,0s-3.4,0-5.1,0c-1.3,0-2.5,0-3.8,0-17.8,0-39.5,1.1-54.1,8.3-24.2,11.6-10.9,29.9,7.2,40.2,9.8,6.3,28,9.9,27.2,23.7-.2,3.6-1.9,7.7-3.3,11.3-20.9,52.3-44.9,103.5-64.2,156.4-8.2,33,18.3,65.8,49.2,74.6,12,3.8,23.7,4,35.9,4s1.5,0,2.3,0c1.9,0,3.9,0,5.9,0,5.8,0,12.1,0,18,0s4.8,0,7.1,0c10.5,0,19.6,0,29.5-2,3.3-.7,6.8-1.6,10-2.7,30.6-9.9,56.7-43.8,45.7-76.3-22.7-52.1-48.7-102.9-72.5-154.5-4.7-10.1-9.1-19.5,3.5-25.4,9.7-4.6,21.9-8.6,31.3-14.3,11.3-6.2,23.3-17,17.3-25.2-8.9-12.1-32.9-15.4-47.2-17.1h-.3c-8.9-.9-17.4-1-25.8-1h0Z"/>
  </g>
  <path class="st7" d="M1492.7,665.8"/>
  <line class="st8" x1="1428.9" y1="536" x2="1486.6" y2="536"/>
  <line class="st8" x1="1427.8" y1="538.9" x2="1485.4" y2="538.2"/>
  <path class="st8" d="M1532,558.2"/>
  <path class="st9" d="M1485.3,558.2"/>
  <line class="st8" x1="1428.9" y1="533.1" x2="1485.4" y2="533.5"/>
  <line class="st8" x1="1402.7" y1="605" x2="1516.4" y2="604.5"/>
  <use width="72.5" height="51.1" transform="translate(1400.1 723.2) scale(.8)" xlink:href="#Fisk_2"/>
  <use width="72.5" height="51.1" transform="translate(1398.3 653.2) scale(.8)" xlink:href="#Fisk_2"/>
  <use width="72.5" height="51.1" transform="translate(1467.3 683.4) scale(.8)" xlink:href="#Fisk_2"/>
  <g>
    <path class="st15" d="M969.4,785.8c-5.1,0-10.1,0-14.9,0s-13.8,0-13.8,0c-21.1,0-40.1-.5-59.9-6.7-25.7-7.3-49.6-24.5-65.5-47.1-17-24.2-22.9-51.6-16.5-77.2,19.6-54,42.6-107.9,64.9-160,14.2-33.3,28.9-67.7,42.5-101.8,2.6-6.3,5.2-13,5.6-19,1-17.6-16.1-25.6-31.2-32.6-5.4-2.5-10.4-4.9-14.6-7.5-16.7-9.5-34.4-25.3-33.9-41.3.3-9.9,7.7-18.3,21.7-25.1,24.8-12.3,61.4-13.8,90.4-13.8s4.3,0,6.4,0c2.9,0,5.7,0,8.6,0s7.9,0,11.8,0c3.9,0,7.7,0,11.5,0,13.3,0,27.7.2,43.2,1.7h.5c20.5,2.5,63.2,7.6,78.7,28.5,2.4,3.2,3.1,6.9,2.2,10.9-2.6,11.5-17.7,23.3-31,30.6-9.9,6-21.7,10.8-33.1,15.5-6.9,2.8-13.3,5.5-19.4,8.4-7,3.3-11.3,7.3-13.1,12.4-3.3,9,1.7,19.6,7,30.8,15.6,33.9,32.1,68.1,48,101.2,24.7,51.3,50.3,104.4,73.3,157.4,7.2,21.6,5.2,44.7-6,67-13.9,27.5-40.8,50.5-70.2,60.1-5.3,1.8-11.1,3.3-16.8,4.5-16.2,3.3-30.9,3.4-48,3.4h-1.4c-3.8,0-7.8,0-11.9,0s-10.1,0-15.3,0Z"/>
    <path d="M982.5,254.1c13.3,0,27.7.2,43.1,1.7h.5c13.9,1.7,28.7,3.8,42.7,7.9,17.2,5,29.2,11.8,35.6,20.4,2.3,3.1,3,6.7,2.1,10.5-1.1,5-4.9,10.6-11,16.3-5.3,4.9-12.3,9.9-19.8,14-9.9,6-21.6,10.8-33,15.5-6.9,2.8-13.3,5.5-19.4,8.4-7.1,3.3-11.5,7.5-13.4,12.7-3.3,9.2,1.7,19.9,7,31.2,15.6,33.9,32.1,68.1,48,101.2,24.7,51.3,50.2,104.3,73.3,157.4,7.2,21.5,5.1,44.5-6,66.6-13.8,27.4-40.6,50.3-69.9,59.8-5.2,1.8-11,3.3-16.7,4.5-16.1,3.3-30.8,3.4-47.9,3.4h-1.4c-3.8,0-7.8,0-11.9,0s-10.1,0-15.2,0c-5,0-10.1,0-14.9,0s-6.8,0-10,0c-1.3,0-2.6,0-3.9,0-21,0-40.1-.5-59.8-6.7-25.6-7.3-49.3-24.4-65.2-46.9-16.9-24.1-22.8-51.3-16.5-76.7,19.6-54,42.6-107.9,64.8-160,14.2-33.3,28.9-67.7,42.5-101.8,2.7-6.4,5.3-13.1,5.7-19.2,1-17.9-16.3-26-31.5-33.1-5.3-2.5-10.4-4.8-14.5-7.5h0s0,0,0,0c-9.8-5.6-18.1-12.1-24-19-6.5-7.5-9.8-15.1-9.5-21.9.3-9.7,7.6-18,21.5-24.6,24.7-12.2,61.2-13.8,90.2-13.8,2.2,0,4.3,0,6.4,0,2.7,0,5.5,0,8.6,0s7.9,0,11.8,0c3.9,0,7.7,0,11.5,0M982.5,253.1c-7.7,0-15.4,0-23.3,0s-5.7,0-8.6,0c-2.1,0-4.2,0-6.4,0-29.8,0-66.1,1.8-90.6,13.9-40.6,19.4-18.2,50.1,12.1,67.3,16.4,10.5,46.8,16.5,45.6,39.7-.4,6-3.1,12.9-5.6,18.9-35.1,87.5-75.2,173.3-107.4,261.8-13.8,55.2,30.6,110.1,82.3,124.9,20.2,6.3,39.6,6.7,60.1,6.7s2.6,0,3.9,0c3.2,0,6.5,0,10,0,9.7,0,20.2,0,30.1,0s8.1,0,11.9,0c17.5,0,32.8,0,49.4-3.4,5.5-1.1,11.3-2.7,16.8-4.5,51.3-16.6,94.8-73.3,76.5-127.7-37.9-87.2-81.5-172.2-121.4-258.6-7.9-16.9-15.3-32.6,5.9-42.5,16.3-7.8,36.6-14.4,52.5-23.9,18.9-10.3,39-28.5,29-42.2-15-20.2-55-25.8-79-28.7h-.5c-15-1.5-29.1-1.7-43.2-1.7h0Z"/>
  </g>
  <path class="st7" d="M1019.9,586.3"/>
  <line class="st8" x1="913.2" y1="369" x2="1009.8" y2="369"/>
  <line class="st8" x1="911.3" y1="374" x2="1007.8" y2="372.7"/>
  <path class="st8" d="M1085.7,406.3"/>
  <path class="st9" d="M1007.7,406.3"/>
  <line class="st8" x1="913.2" y1="364.2" x2="1007.8" y2="364.9"/>
  <line class="st8" x1="869.4" y1="484.6" x2="1059.6" y2="483.7"/>
  <use width="72.5" height="51.1" transform="translate(864.9 682.4) scale(1.3)" xlink:href="#Fisk_2"/>
  <use width="72.5" height="51.1" transform="translate(849.2 586.3) scale(1.3)" xlink:href="#Fisk_2"/>
  <use width="72.5" height="51.1" transform="translate(973.6 670.3) scale(1.3)" xlink:href="#Fisk_2"/>
  <use width="72.5" height="51.1" transform="translate(978.7 589.6) scale(1.3)" xlink:href="#Fisk_2"/>
  <use width="72.5" height="51.1" transform="translate(859.3 511.6) scale(1.3)" xlink:href="#Fisk_2"/>
  <text class="st1" transform="translate(304.7 869.1)"><tspan x="0" y="0" xml:space="preserve">2013:  33.4 t</tspan></text>
  <text class="st1" transform="translate(838.9 872.8)"><tspan x="0" y="0">2016: 51.3 t</tspan></text>
  <text class="st1" transform="translate(1352.5 872.8)"><tspan x="0" y="0">2023: 19.8 t</tspan></text>
  <text/>
  <use width="72.5" height="51.1" transform="translate(966.4 502.5) scale(1.3)" xlink:href="#Fisk_2"/>
  <g>
    <path d="M2005.2,865.6h.6v8.9h3.8v.5h-4.4v-9.4Z"/>
    <path d="M2015.8,871.7c0,2.5-1.5,3.5-2.9,3.5s-2.7-1.2-2.7-3.5,1.4-3.5,2.8-3.5,2.8,1.3,2.8,3.5ZM2010.9,871.7c0,1.5.8,2.9,2.1,2.9s2.2-1.4,2.2-3-.5-2.9-2.1-2.9-2.1,1.6-2.1,3Z"/>
    <path d="M2017.4,870.2c0-.6,0-1.3,0-1.9h.6v1.3h0c.3-.8.9-1.4,1.8-1.4s.2,0,.2,0v.6c0,0-.2,0-.3,0-.9,0-1.5.8-1.7,1.8,0,.2,0,.4,0,.6v3.8h-.6v-4.8Z"/>
    <path d="M2021.1,871.6c0,2.3,1.1,3,2.3,3s1.3-.2,1.6-.3l.2.5c-.3.2-.9.4-1.9.4-1.8,0-2.9-1.4-2.9-3.4s1.1-3.6,2.7-3.6,2.3,1.9,2.3,3,0,.3,0,.4h-4.4ZM2024.9,871.1c0-1.2-.5-2.3-1.8-2.3s-1.8,1.3-2,2.3h3.7Z"/>
    <path d="M2027.1,869.9c0-.7,0-1.1,0-1.6h.6v1.1h0c.4-.7,1-1.2,2-1.2s1.5.5,1.8,1.4h0c.2-.4.4-.7.7-.9.4-.3.8-.5,1.4-.5s2,.4,2,2.7v4.1h-.6v-4c0-1.3-.5-2.3-1.6-2.3s-1.4.6-1.6,1.3c0,.2,0,.4,0,.7v4.3h-.6v-4.3c0-1.1-.5-2-1.5-2s-1.5.7-1.7,1.5c0,.2,0,.4,0,.6v4.2h-.6v-5.1Z"/>
    <path d="M2041.2,866.5c0,.3-.2.6-.5.6s-.5-.2-.5-.6.2-.6.5-.6.5.2.5.6ZM2040.4,875.1v-6.7h.6v6.7h-.6Z"/>
    <path d="M2043.1,870.5c0-.9,0-1.6,0-2.1h.6v1.2h0c.5-.9,1.2-1.3,2.2-1.3,1.5,0,2.6,1.3,2.6,3.4s-1.3,3.6-2.7,3.6-1.6-.4-2-1.1h0v3.7h-.6v-7.3ZM2043.8,872.5c0,.2,0,.4,0,.5.3,1.1,1.1,1.7,1.9,1.7,1.4,0,2.1-1.3,2.1-3s-.7-2.9-2.1-2.9-1.7.7-1.9,1.7c0,.2,0,.4,0,.6v1.4Z"/>
    <path d="M2049.8,874.2c.3.2.8.4,1.4.4,1,0,1.4-.5,1.4-1.3s-.4-1.1-1.3-1.5c-1-.5-1.6-1-1.6-1.9s.8-1.8,1.9-1.8,1.1.2,1.4.4l-.3.5c-.2-.2-.6-.4-1.2-.4s-1.2.5-1.2,1.1.4,1,1.2,1.4c1,.4,1.6,1,1.6,2s-.9,1.9-2.1,1.9-1.2-.2-1.6-.4l.2-.5Z"/>
    <path d="M2059.5,873.4c0,.6,0,1.2,0,1.7h-.6v-1h0c-.3.5-1,1.2-2,1.2s-2.1-.6-2.1-2.8v-4h.6v3.9c0,1.4.4,2.4,1.6,2.4s1.5-.7,1.7-1.3c0-.2.1-.5.1-.7v-4.3h.6v5.1Z"/>
    <path d="M2061.6,869.9c0-.7,0-1.1,0-1.6h.6v1.1h0c.4-.7,1-1.2,2-1.2s1.5.5,1.8,1.4h0c.2-.4.4-.7.7-.9.4-.3.8-.5,1.4-.5s2,.4,2,2.7v4.1h-.6v-4c0-1.3-.5-2.3-1.6-2.3s-1.4.6-1.6,1.3c0,.2,0,.4,0,.7v4.3h-.6v-4.3c0-1.1-.5-2-1.5-2s-1.5.7-1.7,1.5c0,.2,0,.4,0,.6v4.2h-.6v-5.1Z"/>
  </g>
</svg>